<svg width="560" height="652" viewBox="0 0 560 652" fill="none" xmlns="http://www.w3.org/2000/svg">
    <path d="M492.129 423H52.1293V628H492.129V423Z" fill="#3F3D56"/>
    <path d="M396.839 384.649C430.631 384.649 458.024 357.255 458.024 323.463C458.024 289.671 430.631 262.277 396.839 262.277C363.047 262.277 335.653 289.671 335.653 323.463C335.653 357.255 363.047 384.649 396.839 384.649Z" fill="#42B883"/>
    <path d="M396.284 434.114L396.786 323.126" stroke="#3F3D56" stroke-width="2" stroke-miterlimit="10"/>
    <path d="M396.786 338.821C405.454 338.821 412.481 331.794 412.481 323.126C412.481 314.458 405.454 307.431 396.786 307.431C388.117 307.431 381.09 314.458 381.09 323.126C381.09 331.794 388.117 338.821 396.786 338.821Z" fill="#3F3D56"/>
    <path d="M396.477 391.53C396.477 391.53 394.452 343.296 348.463 348.693Z" fill="#3F3D56"/>
    <path d="M140.524 261.806C174.315 261.806 201.709 234.413 201.709 200.621C201.709 166.829 174.315 139.435 140.524 139.435C106.732 139.435 79.3378 166.829 79.3378 200.621C79.3378 234.413 106.732 261.806 140.524 261.806Z" fill="#42B883"/>
    <path d="M137.059 426.503L140.58 200.553" stroke="#3F3D56" stroke-width="2" stroke-miterlimit="10"/>
    <path d="M140.58 216.248C149.249 216.248 156.276 209.221 156.276 200.553C156.276 191.885 149.249 184.858 140.58 184.858C131.912 184.858 124.885 191.885 124.885 200.553C124.885 209.221 131.912 216.248 140.58 216.248Z" fill="#3F3D56"/>
    <path d="M139.584 264.465C139.584 264.465 138.094 216.211 92.0472 221.1Z" fill="#3F3D56"/>
    <path d="M137.126 422.189C137.126 422.189 148.66 329.621 90.4399 324.228" stroke="#3F3D56" stroke-width="2" stroke-miterlimit="10"/>
    <path d="M90.4399 339.924C99.1082 339.924 106.135 332.897 106.135 324.228C106.135 315.56 99.1082 308.533 90.4399 308.533C81.7716 308.533 74.7446 315.56 74.7446 324.228C74.7446 332.897 81.7716 339.924 90.4399 339.924Z" fill="#3F3D56"/>
    <path d="M272.103 125.971C305.895 125.971 333.289 98.5772 333.289 64.7853C333.289 30.9933 305.895 3.59952 272.103 3.59952C238.311 3.59952 210.917 30.9933 210.917 64.7853C210.917 98.5772 238.311 125.971 272.103 125.971Z" fill="#42B883"/>
    <path d="M272.141 435.216V65.01" stroke="#3F3D56" stroke-width="2" stroke-miterlimit="10"/>
    <path d="M272.141 80.53C280.81 80.53 287.837 73.5029 287.837 64.8346C287.837 56.1663 280.81 49.1393 272.141 49.1393C263.473 49.1393 256.446 56.1663 256.446 64.8346C256.446 73.5029 263.473 80.53 272.141 80.53Z" fill="#3F3D56"/>
    <path d="M223.934 348.376C232.602 348.376 239.63 341.349 239.63 332.68C239.63 324.012 232.602 316.985 223.934 316.985C215.266 316.985 208.239 324.012 208.239 332.68C208.239 341.349 215.266 348.376 223.934 348.376Z" fill="#3F3D56"/>
    <path d="M272.141 145.007C272.141 145.007 269.899 96.7825 223.934 102.388Z" fill="#3F3D56"/>
    <path d="M272.141 281.719C272.141 281.719 269.899 233.494 223.934 239.1Z" fill="#3F3D56"/>
    <path d="M272.141 430.901C272.141 430.901 282.231 337.165 223.934 332.68" stroke="#3F3D56" stroke-width="2" stroke-miterlimit="10"/>
    <path d="M321.311 201.148C329.98 201.148 337.007 194.121 337.007 185.452C337.007 176.784 329.98 169.757 321.311 169.757C312.643 169.757 305.616 176.784 305.616 185.452C305.616 194.121 312.643 201.148 321.311 201.148Z" fill="#3F3D56"/>
    <path d="M273.104 278.673C273.104 278.673 263.014 189.937 321.311 185.452" stroke="#3F3D56" stroke-width="2" stroke-miterlimit="10"/>
    <path d="M403 150C398.649 150 394.395 148.71 390.777 146.292C387.16 143.875 384.34 140.439 382.675 136.419C381.01 132.399 380.574 127.976 381.423 123.708C382.272 119.44 384.367 115.52 387.444 112.444C390.52 109.367 394.44 107.272 398.708 106.423C402.976 105.574 407.399 106.01 411.419 107.675C415.439 109.34 418.875 112.16 421.292 115.777C423.71 119.395 425 123.649 425 128C424.993 133.833 422.673 139.425 418.549 143.549C414.425 147.673 408.833 149.993 403 150ZM403 108C399.044 108 395.178 109.173 391.889 111.371C388.6 113.568 386.036 116.692 384.522 120.346C383.009 124.001 382.613 128.022 383.384 131.902C384.156 135.781 386.061 139.345 388.858 142.142C391.655 144.939 395.219 146.844 399.098 147.616C402.978 148.387 406.999 147.991 410.654 146.478C414.308 144.964 417.432 142.4 419.629 139.111C421.827 135.822 423 131.956 423 128C422.994 122.698 420.885 117.614 417.135 113.865C413.386 110.115 408.302 108.006 403 108Z" fill="#3F3D56"/>
    <path d="M57 44C52.6488 44 48.3954 42.7097 44.7775 40.2923C41.1596 37.8749 38.3398 34.439 36.6747 30.419C35.0095 26.3991 34.5739 21.9756 35.4227 17.708C36.2716 13.4404 38.3669 9.52042 41.4437 6.44366C44.5204 3.3669 48.4404 1.27161 52.708 0.422733C56.9756 -0.426142 61.3991 0.00953507 65.419 1.67466C69.439 3.33979 72.875 6.15958 75.2923 9.77746C77.7097 13.3953 79 17.6488 79 22C78.9934 27.8328 76.6735 33.4247 72.5491 37.5491C68.4247 41.6735 62.8328 43.9934 57 44ZM57 2.00001C53.0444 2.00001 49.1776 3.17299 45.8886 5.37062C42.5996 7.56824 40.0362 10.6918 38.5224 14.3463C37.0087 18.0009 36.6126 22.0222 37.3843 25.9018C38.156 29.7814 40.0608 33.3451 42.8579 36.1421C45.6549 38.9392 49.2186 40.844 53.0982 41.6157C56.9778 42.3874 60.9992 41.9913 64.6537 40.4776C68.3082 38.9638 71.4318 36.4004 73.6294 33.1114C75.827 29.8224 77 25.9556 77 22C76.994 16.6975 74.8849 11.614 71.1355 7.86457C67.386 4.11516 62.3025 2.00607 57 2.00001Z" fill="#3F3D56"/>
    <path d="M527 323C522.649 323 518.395 321.71 514.777 319.292C511.16 316.875 508.34 313.439 506.675 309.419C505.01 305.399 504.574 300.976 505.423 296.708C506.272 292.44 508.367 288.52 511.444 285.444C514.52 282.367 518.44 280.272 522.708 279.423C526.976 278.574 531.399 279.01 535.419 280.675C539.439 282.34 542.875 285.16 545.292 288.777C547.71 292.395 549 296.649 549 301C548.993 306.833 546.673 312.425 542.549 316.549C538.425 320.673 532.833 322.993 527 323ZM527 281C523.044 281 519.178 282.173 515.889 284.371C512.6 286.568 510.036 289.692 508.522 293.346C507.009 297.001 506.613 301.022 507.384 304.902C508.156 308.781 510.061 312.345 512.858 315.142C515.655 317.939 519.219 319.844 523.098 320.616C526.978 321.387 530.999 320.991 534.654 319.478C538.308 317.964 541.432 315.4 543.629 312.111C545.827 308.822 547 304.956 547 301C546.994 295.698 544.885 290.614 541.135 286.865C537.386 283.115 532.302 281.006 527 281Z" fill="#3F3D56"/>
    <path d="M467 198C474.18 198 480 192.18 480 185C480 177.82 474.18 172 467 172C459.82 172 454 177.82 454 185C454 192.18 459.82 198 467 198Z" fill="#3F3D56"/>
    <path d="M505 411C512.18 411 518 405.18 518 398C518 390.82 512.18 385 505 385C497.82 385 492 390.82 492 398C492 405.18 497.82 411 505 411Z" fill="#3F3D56"/>
    <path d="M560 652V423H467C467 530.143 380.143 617 273 617C165.857 617 79 530.143 79 423H0V652H560Z" fill="#3F3D56"/>
    <path d="M273 617C380.143 617 467 530.143 467 423H79C79 530.143 165.857 617 273 617Z" fill="#42B883"/>
</svg>
