<svg width="1104" height="561" viewBox="0 0 1104 561" fill="none" xmlns="http://www.w3.org/2000/svg">
<g clip-path="url(#clip0_104_66)">
<path d="M1104 0H0V560H1104V0Z" fill="#35495E"/>
<path d="M1023.15 484.744H1021.15V559.155H1023.15V484.744Z" fill="#42B883"/>
<path d="M1022.15 495.267C1027.96 495.267 1032.67 490.555 1032.67 484.744C1032.67 478.932 1027.96 474.221 1022.15 474.221C1016.34 474.221 1011.62 478.932 1011.62 484.744C1011.62 490.555 1016.34 495.267 1022.15 495.267Z" fill="#42B883"/>
<path d="M1022.15 530.605C1022.15 530.605 1020.64 498.273 989.828 502.031Z" fill="#42B883"/>
<path d="M59.4086 523.87C65.4818 546.32 86.2838 560.224 86.2838 560.224C86.2838 560.224 97.2392 537.729 91.166 515.279C85.0929 492.829 64.2909 478.925 64.2909 478.925C64.2909 478.925 53.3355 501.42 59.4086 523.87Z" fill="white"/>
<path d="M68.3327 519.045C84.9976 535.268 87.0331 560.206 87.0331 560.206C87.0331 560.206 62.0495 558.842 45.3847 542.619C28.7198 526.397 26.6843 501.459 26.6843 501.459C26.6843 501.459 51.6679 502.823 68.3327 519.045Z" fill="#42B883"/>
<path opacity="0.1" d="M552 425.637C639.813 425.637 711 414.892 711 401.637C711 388.382 639.813 377.637 552 377.637C464.187 377.637 393 388.382 393 401.637C393 414.892 464.187 425.637 552 425.637Z" fill="black"/>
<path opacity="0.1" d="M552 405.637C639.813 405.637 711 394.892 711 381.637C711 368.382 639.813 357.637 552 357.637C464.187 357.637 393 368.382 393 381.637C393 394.892 464.187 405.637 552 405.637Z" fill="black"/>
<path opacity="0.1" d="M552 385.637C639.813 385.637 711 374.892 711 361.637C711 348.382 639.813 337.637 552 337.637C464.187 337.637 393 348.382 393 361.637C393 374.892 464.187 385.637 552 385.637Z" fill="black"/>
<path opacity="0.1" d="M552 365.637C639.813 365.637 711 354.892 711 341.637C711 328.382 639.813 317.637 552 317.637C464.187 317.637 393 328.382 393 341.637C393 354.892 464.187 365.637 552 365.637Z" fill="black"/>
<path opacity="0.1" d="M552 345.637C639.813 345.637 711 334.892 711 321.637C711 308.382 639.813 297.637 552 297.637C464.187 297.637 393 308.382 393 321.637C393 334.892 464.187 345.637 552 345.637Z" fill="black"/>
<path opacity="0.1" d="M552 325.637C639.813 325.637 711 314.892 711 301.637C711 288.382 639.813 277.637 552 277.637C464.187 277.637 393 288.382 393 301.637C393 314.892 464.187 325.637 552 325.637Z" fill="black"/>
<path d="M607.694 228.178C595.017 275.038 551.597 304.06 551.597 304.06C551.597 304.06 528.73 257.106 541.406 210.245C554.083 163.385 597.503 134.363 597.503 134.363C597.503 134.363 620.371 181.317 607.694 228.178Z" fill="white"/>
<path d="M492.372 228.178C505.049 275.038 548.469 304.06 548.469 304.06C548.469 304.06 571.336 257.106 558.66 210.245C545.983 163.385 502.563 134.363 502.563 134.363C502.563 134.363 479.696 181.317 492.372 228.178Z" fill="white"/>
<path d="M511 218.107C545.784 251.968 550.033 304.022 550.033 304.022C550.033 304.022 497.884 301.174 463.1 267.313C428.315 233.451 424.066 181.398 424.066 181.398C424.066 181.398 476.215 184.245 511 218.107Z" fill="#42B883"/>
<path d="M589.067 218.107C554.282 251.968 550.033 304.022 550.033 304.022C550.033 304.022 602.182 301.174 636.966 267.313C671.751 233.451 676 181.398 676 181.398C676 181.398 623.851 184.245 589.067 218.107Z" fill="#42B883"/>
<path d="M818 440.311H256.172V442.311H818V440.311Z" fill="#3F3D56"/>
<path d="M875.31 117.072C869.552 117.072 863.922 115.365 859.134 112.165C854.346 108.966 850.614 104.419 848.41 99.0986C846.207 93.7783 845.63 87.924 846.754 82.2761C847.877 76.6281 850.65 71.4402 854.722 67.3682C858.794 63.2963 863.982 60.5232 869.63 59.3998C875.278 58.2764 881.132 58.853 886.452 61.0567C891.773 63.2604 896.32 66.9923 899.519 71.7804C902.718 76.5685 904.426 82.1977 904.426 87.9563C904.417 95.6757 901.347 103.076 895.889 108.535C890.43 113.993 883.03 117.064 875.31 117.072Z" fill="#42B883"/>
<path d="M550.31 127.035C555.876 127.035 560.389 122.523 560.389 116.956C560.389 111.39 555.876 106.878 550.31 106.878C544.744 106.878 540.232 111.39 540.232 116.956C540.232 122.523 544.744 127.035 550.31 127.035Z" fill="#F0F0F0"/>
<path d="M550.31 146.072C544.552 146.072 538.922 144.365 534.134 141.165C529.346 137.966 525.614 133.419 523.41 128.099C521.207 122.778 520.63 116.924 521.754 111.276C522.877 105.628 525.65 100.44 529.722 96.3682C533.794 92.2963 538.982 89.5232 544.63 88.3998C550.278 87.2763 556.132 87.8529 561.452 90.0566C566.773 92.2604 571.32 95.9922 574.519 100.78C577.718 105.568 579.426 111.198 579.426 116.956C579.417 124.676 576.347 132.076 570.889 137.535C565.43 142.993 558.03 146.064 550.31 146.072ZM550.31 90.0801C544.995 90.0801 539.798 91.6563 535.378 94.6095C530.959 97.5627 527.514 101.76 525.48 106.671C523.445 111.582 522.913 116.986 523.95 122.2C524.987 127.413 527.547 132.202 531.306 135.961C535.064 139.719 539.853 142.279 545.067 143.316C550.28 144.353 555.684 143.821 560.595 141.787C565.506 139.753 569.704 136.308 572.657 131.888C575.61 127.468 577.186 122.272 577.186 116.956C577.178 109.831 574.344 102.999 569.306 97.9609C564.267 92.9224 557.436 90.0882 550.31 90.0801Z" fill="#42B883"/>
</g>
<defs>
<clipPath id="clip0_104_66">
<rect width="1104" height="560.271" fill="white"/>
</clipPath>
</defs>
</svg>
